<svg width="16" height="14" viewBox="0 0 16 14" fill="none" xmlns="http://www.w3.org/2000/svg">
<path d="M13.944 2.43961L13.9443 2.43986C14.2484 2.74083 14.4892 3.09777 14.6534 3.49011C14.8176 3.88243 14.902 4.30267 14.902 4.72689C14.902 5.15111 14.8176 5.57135 14.6534 5.96367C14.4892 6.356 14.2484 6.71295 13.9443 7.01392L13.9442 7.01404L13.1681 7.7825L7.99961 12.9002L2.83116 7.7825L2.05508 7.01404C1.44118 6.40618 1.09766 5.58331 1.09766 4.72689C1.09766 3.87046 1.44118 3.0476 2.05508 2.43973C2.66922 1.83162 3.50375 1.48867 4.37545 1.48867C5.24715 1.48867 6.08168 1.83162 6.69583 2.43973L7.22353 1.90679L6.69583 2.43973L7.47191 3.20819C7.76419 3.4976 8.23504 3.4976 8.52732 3.20819L9.3034 2.43973L9.30353 2.43961C9.6075 2.13848 9.96881 1.89922 10.367 1.73584C10.7652 1.57247 11.1923 1.48828 11.6238 1.48828C12.0553 1.48828 12.4823 1.57247 12.8805 1.73584C13.2787 1.89922 13.6401 2.13848 13.944 2.43961Z" stroke="#01579B" stroke-width="1.5" stroke-linecap="round" stroke-linejoin="round"/>
</svg>
